<?xml version="1.0" standalone="no"?>
<!DOCTYPE svg PUBLIC "-//W3C//DTD SVG 20010904//EN"
 "http://www.w3.org/TR/2001/REC-SVG-20010904/DTD/svg10.dtd">
<svg version="1.0" xmlns="http://www.w3.org/2000/svg"
 width="860.000000pt" height="881.000000pt" viewBox="0 0 860.000000 881.000000"
 preserveAspectRatio="xMidYMid meet">

<g transform="translate(0.000000,881.000000) scale(0.100000,-0.100000)"
fill="#000000" stroke="none">
<path d="M4140 8368 c-80 -16 -815 -159 -1635 -318 -820 -160 -1500 -292
-1512 -295 -50 -12 -188 -249 -217 -375 -34 -143 -11 -424 43 -535 34 -69 23
-61 585 -440 172 -115 332 -225 356 -243 25 -19 158 -109 295 -200 220 -146
1627 -1096 1998 -1349 l137 -94 273 71 c149 38 286 74 302 80 28 8 1712 449
2065 540 701 181 1254 331 1261 342 16 24 9 73 -14 99 -13 16 -77 51 -162 88
-77 34 -143 61 -146 61 -4 0 -1 -29 6 -65 6 -36 9 -67 6 -70 -34 -20 -3437
-895 -3484 -895 -9 0 -25 45 -47 133 -63 243 -48 359 75 579 l62 112 54 14
c30 7 851 202 1824 433 1295 307 1773 424 1783 436 16 23 15 88 -2 121 -12 23
-298 164 -1864 915 -1017 488 -1860 886 -1873 886 -13 -1 -89 -14 -169 -31z"/>
<path d="M604 6159 c-102 -29 -196 -226 -224 -466 -17 -148 6 -276 83 -462
l30 -74 -24 -106 c-42 -184 -28 -448 31 -576 10 -22 81 -114 158 -205 90 -106
135 -166 126 -168 -8 -2 -22 -18 -30 -35 -41 -80 -70 -92 -170 -71 -92 19
-106 12 -163 -76 -79 -121 -116 -300 -108 -510 6 -143 22 -223 62 -305 24 -49
49 -67 952 -695 510 -355 1306 -909 1770 -1232 463 -322 856 -589 872 -593 24
-5 330 118 1703 684 920 380 1679 699 1686 708 6 9 12 32 12 51 0 67 -23 91
-187 204 -86 59 -158 106 -161 104 -2 -2 4 -49 13 -103 9 -54 15 -116 13 -137
l-3 -38 -130 -52 c-71 -29 -353 -143 -625 -254 -669 -270 -1378 -561 -1825
-749 -203 -86 -377 -157 -386 -160 -11 -3 -22 16 -43 81 -38 116 -55 218 -62
366 -6 108 -4 136 15 209 31 122 64 150 149 120 37 -13 65 0 132 58 37 33 79
52 235 107 382 136 866 323 2362 911 432 170 453 180 468 211 17 36 10 68 -21
95 -21 18 -148 83 -442 225 l-193 93 -35 -72 c-50 -106 -63 -213 -40 -337 9
-51 15 -94 13 -96 -6 -7 -701 -164 -2227 -504 l-1425 -318 -31 19 c-116 70
-194 234 -194 409 0 133 34 228 116 319 l48 53 72 -7 c78 -7 114 4 164 51 20
19 50 27 145 42 l120 19 176 -133 175 -133 340 98 c186 54 728 211 1204 349
l865 250 330 52 c182 28 338 53 348 56 22 7 37 42 30 75 -4 24 0 26 287 108
221 64 295 89 306 105 17 25 18 77 2 98 -12 14 -314 203 -344 215 -8 3 -10
-15 -6 -65 2 -39 1 -94 -2 -124 l-7 -55 -332 -88 c-423 -112 -2152 -583 -2617
-713 -234 -66 -359 -96 -367 -90 -21 17 -91 172 -107 238 -40 165 -38 351 4
461 27 71 79 148 104 154 88 21 780 175 785 175 3 0 1 4 -4 9 -6 5 -861 435
-1902 956 l-1892 947 -19 42 c-27 57 -42 135 -42 216 l0 70 -42 -1 c-24 0 -57
-5 -74 -10z"/>
<path d="M7365 4611 c-66 -27 -153 -60 -193 -76 -40 -15 -71 -29 -69 -31 8 -9
363 79 380 94 17 15 24 63 10 61 -5 -1 -62 -22 -128 -48z"/>
</g>
</svg>
