<?xml version="1.0" standalone="no"?>
<!DOCTYPE svg PUBLIC "-//W3C//DTD SVG 20010904//EN"
 "http://www.w3.org/TR/2001/REC-SVG-20010904/DTD/svg10.dtd">
<svg version="1.0" xmlns="http://www.w3.org/2000/svg"
 width="1640.000000pt" height="924.000000pt" viewBox="0 0 1640.000000 924.000000"
 preserveAspectRatio="xMidYMid meet">

<g transform="translate(0.000000,924.000000) scale(0.100000,-0.100000)"
fill="#000000" stroke="none">
<path d="M0 4620 l0 -4620 8200 0 8200 0 0 4620 0 4620 -8200 0 -8200 0 0
-4620z m8140 1604 c26 -87 48 -136 71 -161 21 -21 21 -21 1 -32 -10 -5 -26
-21 -35 -34 l-16 -24 40 13 c45 16 127 11 147 -9 11 -12 5 -17 -35 -32 -85
-32 -165 -104 -193 -173 -4 -9 -18 5 -37 37 -35 56 -96 103 -175 137 -49 21
-50 22 -28 34 29 16 129 17 158 1 31 -17 27 0 -8 34 -19 18 -26 32 -21 39 30
38 61 116 93 236 10 37 13 41 16 20 2 -14 12 -52 22 -86z m-332 -319 c113 -27
190 -80 239 -163 21 -36 27 -58 27 -106 0 -74 -15 -103 -59 -122 -47 -19 -78
-18 -109 7 -52 41 -19 86 55 74 50 -9 58 8 31 62 -25 49 -63 86 -110 110 -31
15 -61 18 -182 18 -138 0 -150 -2 -239 -33 -91 -31 -274 -116 -298 -137 -6 -5
-41 -28 -78 -50 -91 -55 -229 -157 -418 -311 -47 -38 -158 -114 -167 -114 -6
0 -10 -5 -10 -12 0 -6 -3 -9 -6 -5 -3 3 -16 -3 -28 -14 -11 -11 -59 -39 -105
-62 -81 -40 -89 -42 -175 -42 -107 0 -172 21 -211 66 -49 59 -23 132 47 132
39 0 61 -27 55 -68 -5 -29 -2 -33 45 -54 39 -18 63 -22 100 -19 51 5 173 61
220 101 14 12 43 36 64 52 21 17 90 74 154 128 63 54 144 119 180 145 36 25
70 51 75 57 6 7 26 23 45 36 19 13 44 32 55 42 18 17 69 53 117 82 199 120
295 163 443 196 99 22 162 23 243 4z m837 0 c148 -28 322 -106 491 -220 32
-22 65 -46 73 -53 8 -7 26 -21 40 -30 29 -19 152 -118 415 -336 133 -109 232
-177 290 -196 90 -30 204 10 198 69 -4 40 28 65 73 57 41 -8 60 -41 50 -88 -7
-29 -61 -78 -86 -78 -8 0 -20 -5 -26 -11 -7 -7 -45 -12 -90 -12 -101 0 -189
28 -294 93 -92 57 -327 229 -382 280 -21 19 -50 41 -63 48 -13 7 -24 17 -24
22 0 6 -5 10 -11 10 -5 0 -38 20 -73 44 -193 135 -387 231 -546 271 -77 20
-270 19 -317 0 -81 -34 -143 -102 -143 -158 0 -28 1 -28 45 -21 52 7 75 -6 75
-42 0 -70 -140 -71 -177 0 -40 76 -12 181 70 258 99 94 240 126 412 93z m49
-225 c102 -32 314 -136 407 -200 20 -14 56 -38 80 -55 135 -92 304 -220 358
-272 13 -13 28 -23 32 -23 5 0 9 -17 9 -38 0 -79 51 -186 102 -217 l28 -16 0
-135 0 -134 35 0 35 0 0 149 0 149 -35 22 c-19 12 -44 35 -56 51 -23 33 -53
119 -41 119 4 0 23 -11 42 -23 68 -46 206 -108 269 -120 l64 -13 -34 -21 c-19
-12 -46 -25 -62 -28 l-28 -7 3 -137 3 -136 555 -5 c511 -5 555 -6 558 -22 3
-16 -21 -17 -300 -20 -167 -2 -1492 -4 -2945 -4 l-2643 -2 0 24 0 24 596 0
597 0 -7 137 c-6 135 -11 152 -43 153 -6 0 -29 10 -50 22 l-38 23 50 7 c92 13
190 55 311 135 32 21 38 13 25 -34 -12 -43 -64 -108 -102 -127 -24 -11 -24
-14 -27 -164 l-3 -152 36 0 35 0 0 130 0 130 41 37 c53 48 78 98 86 173 6 60
6 61 72 114 87 71 230 177 360 267 112 77 357 207 431 228 25 7 55 17 68 22
13 5 78 9 146 9 111 0 125 -2 141 -20 17 -19 17 -22 2 -37 -14 -14 -22 -15
-55 -5 -22 7 -51 12 -66 12 l-26 0 0 -530 0 -530 70 0 70 0 2 403 3 402 23 3
22 3 0 -405 0 -406 95 0 95 0 0 405 c0 391 1 405 19 405 10 0 22 -7 25 -16 4
-9 6 -143 6 -298 -1 -154 -1 -329 0 -388 l0 -108 90 0 90 0 0 93 c1 50 1 225
0 388 0 163 2 304 6 313 3 9 15 16 25 16 18 0 19 -14 19 -405 l0 -405 70 0 70
0 0 531 0 532 -37 -6 c-21 -3 -53 -9 -70 -12 -26 -6 -34 -4 -39 10 -10 25 8
49 42 57 54 13 216 0 288 -22z m-3854 -1874 c0 -2 15 -47 34 -100 l34 -96 -23
0 c-13 0 -25 7 -29 15 -3 10 -19 15 -45 15 -25 0 -41 -5 -45 -15 -3 -8 -15
-15 -27 -15 -17 0 -20 5 -16 23 6 30 50 149 60 165 7 11 57 18 57 8z m653 -7
c68 -36 36 -67 -33 -32 -33 16 -34 16 -57 -11 -27 -31 -30 -68 -7 -90 20 -20
68 -21 84 -1 11 13 8 15 -19 15 -24 0 -31 4 -31 20 0 18 7 20 55 20 52 0 55
-2 55 -24 0 -14 -12 -38 -26 -55 -22 -27 -32 -31 -75 -31 -69 0 -99 30 -99 96
0 64 36 104 93 104 21 0 48 -5 60 -11z m365 -16 c6 -16 22 -58 36 -95 14 -36
26 -69 26 -72 0 -13 -48 -5 -54 9 -3 10 -19 15 -46 15 -29 0 -40 -4 -40 -15 0
-9 -9 -15 -25 -15 -14 0 -25 3 -25 8 0 12 35 100 43 108 4 4 7 13 7 20 0 62
58 89 78 37z m400 10 c-2 -10 -13 -19 -26 -21 -19 -3 -22 -10 -23 -55 -1 -29
0 -64 1 -79 1 -24 -2 -28 -24 -28 -26 0 -26 1 -26 80 0 79 0 80 -25 80 -18 0
-25 5 -25 20 0 18 7 20 76 20 66 0 75 -2 72 -17z m320 0 c-2 -13 -14 -19 -41
-21 -29 -3 -37 -7 -37 -23 0 -15 7 -19 35 -19 28 0 35 -4 35 -20 0 -16 -7 -20
-35 -20 -28 0 -35 -4 -35 -19 0 -16 8 -20 37 -23 27 -2 39 -8 41 -20 3 -16 -5
-18 -62 -18 l-66 0 0 100 0 100 66 0 c57 0 65 -2 62 -17z m246 -10 c3 -16 8
-45 12 -66 8 -48 19 -38 36 33 12 47 18 55 38 55 20 0 25 -9 40 -63 10 -34 20
-65 23 -68 3 -3 11 21 17 53 17 83 17 83 40 83 23 0 23 -2 -15 -125 -17 -57
-25 -71 -43 -73 -12 -2 -24 3 -26 10 -2 7 -12 35 -22 62 l-18 49 -15 -61 c-13
-57 -16 -62 -41 -62 -30 0 -36 11 -64 112 -22 77 -21 88 8 88 19 0 26 -7 30
-27z m566 -60 c18 -49 35 -94 37 -100 3 -8 -4 -13 -20 -13 -17 0 -28 7 -32 20
-5 15 -15 20 -40 20 -24 0 -38 -6 -45 -20 -6 -11 -19 -20 -30 -20 -21 0 -20 5
24 124 14 38 26 71 26 72 0 2 10 4 23 4 20 0 28 -12 57 -87z m291 45 l22 -43
20 43 c16 31 27 42 43 42 23 0 23 -1 7 -37 -8 -21 -19 -43 -25 -50 -5 -6 -13
-33 -16 -60 -6 -40 -11 -49 -30 -51 -19 -3 -22 1 -22 31 0 21 -14 62 -36 101
l-35 66 25 0 c20 0 30 -9 47 -42z m687 25 c-2 -10 -10 -18 -18 -19 -8 -1 -21
-2 -27 -2 -9 -2 -13 -25 -13 -82 0 -73 -2 -80 -20 -80 -18 0 -20 7 -20 80 0
78 -1 80 -24 80 -23 0 -41 22 -29 34 4 3 40 6 80 6 66 0 74 -2 71 -17z m365
-9 c35 -34 42 -75 22 -117 -42 -88 -175 -78 -199 16 -18 72 28 126 110 127 31
0 47 -6 67 -26z m595 14 c7 -7 12 -20 12 -30 0 -22 -32 -24 -50 -4 -6 8 -18
12 -26 9 -27 -10 -14 -32 27 -45 71 -21 81 -96 16 -117 -36 -12 -61 -7 -89 17
-26 22 -22 42 7 42 14 0 25 -4 25 -10 0 -5 11 -10 25 -10 37 0 31 27 -10 40
-63 21 -83 63 -48 102 19 21 92 25 111 6z m274 -65 l3 -78 30 0 30 0 5 75 c5
68 7 75 28 78 21 3 22 1 22 -75 -1 -110 -33 -144 -114 -122 -42 12 -56 45 -56
135 0 61 1 64 25 64 23 0 24 -3 27 -77z m486 50 l27 -28 -23 -3 c-13 -2 -28 1
-35 6 -26 20 -47 20 -71 1 -32 -25 -34 -71 -6 -99 24 -24 47 -25 71 -4 9 8 27
14 39 12 l22 -3 -22 -27 c-18 -23 -29 -28 -66 -28 -63 0 -104 40 -104 100 0
89 106 135 168 73z m389 3 c34 -30 24 -44 -20 -28 -19 7 -41 12 -49 12 -45 0
-64 -74 -28 -110 19 -19 21 -19 64 -3 55 21 69 11 34 -23 -20 -21 -35 -26 -69
-26 -59 1 -99 43 -99 103 0 86 101 132 167 75z m353 10 c0 -10 -13 -16 -37
-18 -50 -4 -53 -36 -6 -52 43 -14 46 -30 6 -34 -30 -3 -49 -24 -37 -43 3 -5
21 -9 40 -9 24 0 34 -5 34 -15 0 -12 -13 -15 -55 -15 l-55 0 0 100 0 100 55 0
c41 0 55 -4 55 -14z m333 -8 l22 -23 -24 -3 c-13 -2 -27 2 -31 8 -11 18 -45 7
-45 -14 0 -13 12 -23 40 -33 57 -20 73 -57 38 -95 -31 -35 -123 -14 -123 29 0
18 37 16 44 -3 8 -21 50 -14 54 9 2 10 -4 19 -15 23 -57 17 -83 38 -83 65 0
55 80 79 123 37z m349 0 c4 -7 8 -16 8 -20 0 -12 -35 -9 -47 3 -7 7 -19 9 -27
6 -30 -12 -16 -37 32 -59 52 -25 62 -47 38 -83 -13 -19 -25 -25 -53 -25 -34 0
-73 22 -73 42 0 12 27 10 49 -4 10 -6 26 -8 35 -5 23 9 16 41 -9 46 -11 2 -32
12 -47 23 -56 39 -19 105 51 94 19 -3 38 -11 43 -18z"/>
<path d="M7568 5628 l-48 -10 0 -514 0 -514 70 0 70 0 0 525 0 525 -22 -1
c-13 -1 -44 -6 -70 -11z"/>
<path d="M8560 5115 l0 -525 70 0 70 0 -2 511 -3 512 -45 13 c-25 8 -55 14
-67 14 l-23 0 0 -525z"/>
<path d="M8755 5592 c-3 -3 -5 -230 -5 -504 l0 -498 65 0 65 0 0 474 0 473
-60 30 c-32 17 -62 28 -65 25z"/>
<path d="M7393 5565 l-53 -24 0 -476 0 -475 65 0 65 0 0 500 c0 393 -3 500
-12 500 -7 0 -37 -11 -65 -25z"/>
<path d="M7213 5468 l-63 -40 0 -419 0 -419 70 0 70 0 0 454 c0 250 -3 457 -7
459 -5 3 -36 -13 -70 -35z"/>
<path d="M8939 5483 c0 -10 -2 -215 -3 -455 l-3 -438 69 0 68 0 0 419 0 419
-24 16 c-34 21 -96 56 -101 56 -3 0 -5 -8 -6 -17z"/>
<path d="M7023 5341 l-63 -46 0 -352 0 -353 70 0 70 0 0 394 c0 217 -3 397 -7
399 -5 3 -36 -16 -70 -42z"/>
<path d="M9130 5387 c-2 -7 -3 -637 -1 -709 l1 -88 65 0 65 0 0 353 0 352 -65
47 c-36 26 -65 46 -65 45z"/>
<path d="M6837 5203 l-57 -48 0 -282 0 -283 65 0 65 0 0 330 c0 182 -3 330 -8
330 -4 0 -33 -21 -65 -47z"/>
<path d="M9320 5248 c-1 -2 -3 -150 -6 -330 l-6 -328 71 0 71 0 0 279 0 279
-65 51 c-36 28 -65 50 -65 49z"/>
<path d="M6700 5038 c-15 -77 -40 -127 -91 -183 l-39 -42 0 -112 0 -111 75 0
75 0 0 255 c0 140 -2 255 -4 255 -2 0 -9 -28 -16 -62z"/>
<path d="M9510 5095 c-2 -9 -2 -461 -1 -492 1 -9 22 -13 71 -13 l70 0 0 118
-1 117 -39 40 c-46 46 -80 111 -81 157 -1 34 -16 90 -19 73z"/>
<path d="M4795 3721 c-8 -38 -4 -44 23 -39 20 3 20 4 2 37 l-18 35 -7 -33z"/>
<path d="M5811 3716 c-16 -30 -11 -39 17 -34 18 3 19 6 8 32 l-11 28 -14 -26z"/>
<path d="M7322 3727 c-16 -45 -16 -47 13 -47 29 0 30 6 12 49 l-13 31 -12 -33z"/>
<path d="M8616 3748 c-32 -45 -7 -98 45 -98 35 0 49 18 49 60 0 20 -5 41 -12
48 -20 20 -65 14 -82 -10z"/>
</g>
</svg>
